<svg width="25" height="24" viewBox="0 0 25 24" fill="none" xmlns="http://www.w3.org/2000/svg">
<path d="M4 3H11.5C11.776 3 12 3.224 12 3.5V11C12 11.276 11.776 11.5 11.5 11.5H4C3.724 11.5 3.5 11.276 3.5 11V3.5C3.5 3.224 3.724 3 4 3Z" fill="#0077D4"/>
<path d="M13.021 10.979V3.5C13.021 3.224 13.245 3 13.521 3H21C21.276 3 21.5 3.224 21.5 3.5V10.979C21.5 11.255 21.276 11.479 21 11.479H13.521C13.2445 11.479 13.021 11.2555 13.021 10.979Z" fill="#0077D4"/>
<path d="M4 12.5H11.5C11.776 12.5 12 12.724 12 13V20.5C12 20.776 11.776 21 11.5 21H4C3.724 21 3.5 20.776 3.5 20.5V13C3.5 12.724 3.724 12.5 4 12.5Z" fill="#0077D4"/>
<path d="M13 20.5V13C13 12.724 13.224 12.5 13.5 12.5H21C21.276 12.5 21.5 12.724 21.5 13V20.5C21.5 20.776 21.276 21 21 21H13.5C13.224 21 13 20.776 13 20.5Z" fill="#0077D4"/>
</svg>
